<svg id="Ebene_1" data-name="Ebene 1" xmlns="http://www.w3.org/2000/svg" xmlns:xlink="http://www.w3.org/1999/xlink" viewBox="0 0 122.78 43.2"><defs><style>.cls-1{font-size:35px;fill:#0f1b2c;font-family:Arial-BoldMT, Arial;font-weight:700;}.cls-2{fill:url(#Unbenannter_Verlauf_23);}.cls-3{fill:#71b2e2;}.cls-4{fill:#fff;}</style><linearGradient id="Unbenannter_Verlauf_23" x1="135.87" y1="286.3" x2="176.82" y2="286.3" gradientUnits="userSpaceOnUse"><stop offset="0" stop-color="#71b2e2"/><stop offset="0.4" stop-color="#70b0e0"/><stop offset="0.54" stop-color="#6cabd9"/><stop offset="0.64" stop-color="#66a1ce"/><stop offset="0.73" stop-color="#5d93bd"/><stop offset="0.8" stop-color="#5181a7"/><stop offset="0.86" stop-color="#426a8b"/><stop offset="0.92" stop-color="#314f6b"/><stop offset="0.97" stop-color="#1d3147"/><stop offset="1" stop-color="#0f1b2c"/></linearGradient></defs><text class="cls-1" transform="translate(43.67 30.03)">EAM</text><path class="cls-2" d="M135.87,286.23a115.59,115.59,0,0,1,21,4.29,104.17,104.17,0,0,1,19.92,8.16V273.92a104.17,104.17,0,0,1-19.92,8.16,115.59,115.59,0,0,1-21,4.29" transform="translate(-132.07 -268.81)"/><text class="cls-1" transform="translate(0 30.03)">B</text><path id="path5762-8-1-8-5" class="cls-3" d="M137.14,281.34v-2.5h-2.51v-2.54h2.51v-2.49h2.56v2.49h2.52v2.1h-.15l-.09-.09-.1-.09,0-.11a1.75,1.75,0,0,1,.13-.35l.11-.23-.17-.15-.16-.15-.28.16-.28.16h-.16l-.07-.07-.07-.07,0-.19c0-.11-.05-.25-.06-.32l0-.13-.18,0-.22,0h0l-.13.25a1.66,1.66,0,0,1-.2.32l-.07.07h-.19l-.25-.25a1.41,1.41,0,0,0-.27-.25l-.2.07-.16.07,0,.36,0,.36-.07.07-.06.07h-.27l-.24-.07-.25-.08-.06.06a1.06,1.06,0,0,0-.13.18l-.06.11.18.23.19.22,0,.1,0,.09,0,.08,0,.08-.15.07a2.64,2.64,0,0,1-.37.13l-.2.06v.42l.24.07a1.93,1.93,0,0,1,.36.14l.12.07,0,.09,0,.09-.05.1a2.78,2.78,0,0,1-.24.3l-.18.19.1.17.09.17h.07a1.25,1.25,0,0,0,.26-.05l.17-.06h.3l0,0a.49.49,0,0,1,.08.13l0,.11,0,.15,0,.16h-1.8Zm2.34-.93-.16-.1-.13-.15-.14-.16-.07-.2-.08-.2,0-.17,0-.18.06-.23.06-.23.11-.18.12-.17.15-.12.15-.12.18-.08.17-.08.26,0h.26l.19.05.2.06.2.14.2.15.12.16a.84.84,0,0,1,.11.22v0h-1.66v1.67h-.05a.69.69,0,0,1-.21-.1Z" transform="translate(-132.07 -268.81)"/><rect class="cls-4" x="7.63" y="9.15" width="4.7" height="2.64"/></svg>